grf
version=1
nRows=6
nColumns=37
inDegrees=no
endheader
time	ground_force_1_vx	ground_force_1_vy	ground_force_1_vz	ground_force_1_px	ground_force_1_py	ground_force_1_pz	ground_moment_1_mx	ground_moment_1_my	ground_moment_1_mz	ground_force_2_vx	ground_force_2_vy	ground_force_2_vz	ground_force_2_px	ground_force_2_py	ground_force_2_pz	ground_moment_2_mx	ground_moment_2_my	ground_moment_2_mz	ground_force_3_vx	ground_force_3_vy	ground_force_3_vz	ground_force_3_px	ground_force_3_py	ground_force_3_pz	ground_moment_3_mx	ground_moment_3_my	ground_moment_3_mz	ground_force_4_vx	ground_force_4_vy	ground_force_4_vz	ground_force_4_px	ground_force_4_py	ground_force_4_pz	ground_moment_4_mx	ground_moment_4_my	ground_moment_4_mz
      0.00000000	      0.00000000	     -0.00000000	      0.00000000	      0.00000000	      0.00000000	      0.00000000	      0.00000000	      0.00000000	      0.00000000	      3.90765548	     22.99564362	   -391.15921021	   -327.11535513	  -1069.44353047	      0.00000000	      0.00000000	      0.00000000	   1550.36275908	     -4.29950917	    -23.19330178	   -329.66891479	   -299.11439984	   -751.48303799	      0.00000000	     -0.00000000	     -0.00000000	  -2560.36153749	      0.00000000	     -0.00000000	      0.00000000	      0.00000000	      0.00000000	      0.00000000	      0.00000000	      0.00000000	      0.00000000
      0.01000000	      0.00000000	     -0.00000000	      0.00000000	      0.00000000	      0.00000000	      0.00000000	      0.00000000	      0.00000000	      0.00000000	      3.72289586	     23.35873032	   -392.99447632	   -326.87343950	  -1069.06629024	      0.00000000	      0.00000000	      0.00000000	   1442.20856011	     -4.57172789	    -23.41146048	   -328.66967773	   -299.08678351	   -751.87154516	      0.00000000	      0.00000000	     -0.00000000	  -2548.88701405	      0.00000000	     -0.00000000	      0.00000000	      0.00000000	      0.00000000	      0.00000000	      0.00000000	      0.00000000	      0.00000000
      0.02000000	      0.00000000	     -0.00000000	      0.00000000	      0.00000000	      0.00000000	      0.00000000	      0.00000000	      0.00000000	      0.00000000	      3.29395747	     23.65388298	   -394.85516357	   -327.34570735	  -1068.62167663	      0.00000000	      0.00000000	      0.00000000	   1230.96360770	     -4.90289748	    -23.24583011	   -328.24505615	   -299.01153289	   -752.08594743	      0.00000000	      0.00000000	     -0.00000000	  -2375.38750026	      0.00000000	     -0.00000000	      0.00000000	      0.00000000	      0.00000000	      0.00000000	      0.00000000	      0.00000000	      0.00000000
      0.03000000	      0.00000000	     -0.00000000	      0.00000000	      0.00000000	      0.00000000	      0.00000000	      0.00000000	      0.00000000	      0.00000000	      3.40428352	     23.55449295	   -395.57208252	   -327.73026420	  -1068.94511293	      0.00000000	      0.00000000	      0.00000000	   1219.05211502	     -4.53106034	    -23.18105277	   -327.06109619	   -298.91131530	   -752.96410861	      0.00000000	      0.00000000	     -0.00000000	  -2550.73372449	      0.00000000	     -0.00000000	      0.00000000	      0.00000000	      0.00000000	      0.00000000	      0.00000000	      0.00000000	      0.00000000
      0.04000000	      0.00000000	     -0.00000000	      0.00000000	      0.00000000	      0.00000000	      0.00000000	      0.00000000	      0.00000000	      0.00000000	      3.15390086	     23.82194519	   -398.04168701	   -327.99333836	  -1069.91725895	      0.00000000	      0.00000000	      0.00000000	   1242.35157977	     -4.65379346	    -23.22158391	   -326.83367920	   -298.51334903	   -752.17134820	      0.00000000	      0.00000000	     -0.00000000	  -2567.43988866	      0.00000000	     -0.00000000	      0.00000000	      0.00000000	      0.00000000	      0.00000000	      0.00000000	      0.00000000	      0.00000000
      0.05000000	      0.00000000	     -0.00000000	      0.00000000	      0.00000000	      0.00000000	      0.00000000	      0.00000000	      0.00000000	      0.00000000	      3.78762507	     23.92769432	   -397.32745361	   -327.86875015	  -1068.79558276	      0.00000000	      0.00000000	      0.00000000	   1437.98008157	     -4.76637997	    -23.42187077	   -328.64617920	   -298.95493438	   -751.43811392	      0.00000000	      0.00000000	     -0.00000000	  -2544.71153813	      0.00000000	     -0.00000000	      0.00000000	      0.00000000	      0.00000000	      0.00000000	      0.00000000	      0.00000000	      0.00000000
